<svg width="36" height="36" viewBox="0 0 36 36" fill="none" xmlns="http://www.w3.org/2000/svg">
<path d="M31.47 3.83999C30.5089 2.89001 29.2454 2.30679 27.8989 2.1917C26.5525 2.0766 25.2083 2.43691 24.1 3.20999C27.6628 4.69336 30.5732 7.4086 32.3 10.86C32.9665 9.76556 33.2469 8.4793 33.0965 7.20675C32.946 5.9342 32.3734 4.7488 31.47 3.83999V3.83999Z" fill="white"/>
<path d="M11.42 3.43C10.3162 2.55337 8.92973 2.11109 7.52223 2.18663C6.11473 2.26216 4.78356 2.85028 3.77995 3.84C2.78463 4.84191 2.19514 6.17661 2.12499 7.58713C2.05483 8.99765 2.50896 10.3843 3.39995 11.48C5.00448 7.91003 7.856 5.04784 11.42 3.43V3.43Z" fill="white"/>
<path d="M16.4 4.09C13.7891 4.395 11.3169 5.42889 9.26613 7.07334C7.2154 8.71779 5.66906 10.9064 4.80409 13.3886C3.93911 15.8709 3.79044 18.5465 4.37509 21.1093C4.95974 23.6721 6.25409 26.0185 8.11001 27.88L5.56001 30.43C5.46743 30.5246 5.39437 30.6364 5.34502 30.7592C5.29567 30.882 5.27099 31.0133 5.27238 31.1456C5.27377 31.2779 5.30122 31.4087 5.35314 31.5304C5.40506 31.6521 5.48046 31.7624 5.57501 31.855C5.66956 31.9476 5.78142 32.0206 5.9042 32.07C6.02699 32.1193 6.15829 32.144 6.29061 32.1426C6.42294 32.1412 6.55369 32.1138 6.67541 32.0619C6.79713 32.0099 6.90743 31.9346 7.00001 31.84L9.66001 29.18C12.0925 31.0208 15.0631 32.0102 18.1135 31.9958C21.164 31.9813 24.125 30.9637 26.54 29.1L29.28 31.84C29.4713 32.0038 29.7174 32.0894 29.9691 32.0797C30.2207 32.07 30.4595 31.9657 30.6376 31.7876C30.8157 31.6095 30.92 31.3707 30.9297 31.1191C30.9394 30.8674 30.8538 30.6213 30.69 30.43L28 27.78C30.0186 25.7122 31.3479 23.0704 31.8055 20.2171C32.2631 17.3639 31.8265 14.4389 30.5557 11.8436C29.2849 9.24826 27.2421 7.10978 24.7076 5.72157C22.1732 4.33336 19.2712 3.76344 16.4 4.09V4.09ZM19.58 29.9C17.0946 30.2255 14.5696 29.7646 12.3596 28.5818C10.1495 27.3991 8.36529 25.554 7.25738 23.3055C6.14948 21.057 5.7735 18.518 6.18223 16.0449C6.59097 13.5718 7.76389 11.2888 9.53635 9.51634C11.3088 7.74388 13.5918 6.57096 16.0649 6.16223C18.538 5.7535 21.077 6.12947 23.3255 7.23738C25.574 8.34529 27.4191 10.1295 28.6019 12.3396C29.7846 14.5496 30.2455 17.0746 29.92 19.56C29.5766 22.182 28.3767 24.6171 26.5069 26.4869C24.6371 28.3567 22.202 29.5566 19.58 29.9Z" fill="white"/>
<path d="M24.9201 20.34L18.8601 17.34V9.50001C18.8601 9.26131 18.7652 9.03239 18.5965 8.86361C18.4277 8.69483 18.1988 8.60001 17.9601 8.60001C17.7214 8.60001 17.4924 8.69483 17.3237 8.86361C17.1549 9.03239 17.0601 9.26131 17.0601 9.50001V18.5L24.1201 22C24.3349 22.1048 24.5825 22.1199 24.8085 22.0421C25.0345 21.9642 25.2203 21.7998 25.3251 21.585C25.4298 21.3702 25.445 21.1225 25.3671 20.8966C25.2893 20.6706 25.1249 20.4848 24.9101 20.38L24.9201 20.34Z" fill="white"/>
</svg>
